<svg id="Layer_1" data-name="Layer 1" xmlns="http://www.w3.org/2000/svg" viewBox="0 0 1000 1000"><defs><style>.cls-1{fill:#fcfaed;}</style></defs><title>Artboard 17 copy 3</title><path class="cls-1" d="M500,54.22C253.8,54.22,54.22,253.8,54.22,500S253.8,945.78,500,945.78,945.78,746.2,945.78,500,746.2,54.22,500,54.22Zm77.13,274.6,112.66.32-.07,26.11-112.67-.32Zm-45.85-91.25,18.41,18.51-79.9,79.44L451.38,317Zm-189,285.74-79.44-79.89L281.39,425l79.44,79.89Zm37.92-125.66-26.11-.08.32-112.67,26.11.08ZM523,762.43H470V736.32h53Zm32.11-40.76H439.15V695.55H555.09Zm0-40.77H439.15V654.79H555.09Zm24.3-128.51-28.31,87.74H443.17l-28.31-87.74a113.15,113.15,0,1,1,164.53,0Zm139.22-28-79.44-79.9,18.52-18.41L737.13,506Z"/><path class="cls-1" d="M497.12,387.67a87,87,0,0,0-61.54,148.58l2.23,2.23L462.18,614h69.89l24.37-75.54,2.22-2.23a87,87,0,0,0-61.54-148.58Z"/></svg>