<?xml version="1.0" encoding="UTF-8" standalone="no"?>
<svg
   xmlns:dc="http://purl.org/dc/elements/1.1/"
   xmlns:cc="http://creativecommons.org/ns#"
   xmlns:rdf="http://www.w3.org/1999/02/22-rdf-syntax-ns#"
   xmlns:svg="http://www.w3.org/2000/svg"
   xmlns="http://www.w3.org/2000/svg"
   xmlns:sodipodi="http://sodipodi.sourceforge.net/DTD/sodipodi-0.dtd"
   xmlns:inkscape="http://www.inkscape.org/namespaces/inkscape"
   id="Layer_1"
   data-name="Layer 1"
   viewBox="0 0 1000 1000"
   version="1.1"
   sodipodi:docname="main.svg"
   inkscape:version="0.92.4 5da689c313, 2019-01-14">
  <metadata
     id="metadata55">
    <rdf:RDF>
      <cc:Work
         rdf:about="">
        <dc:format>image/svg+xml</dc:format>
        <dc:type
           rdf:resource="http://purl.org/dc/dcmitype/StillImage" />
        <dc:title>Artboard 17 copy 8</dc:title>
      </cc:Work>
    </rdf:RDF>
  </metadata>
  <sodipodi:namedview
     pagecolor="#ffffff"
     bordercolor="#666666"
     borderopacity="1"
     objecttolerance="10"
     gridtolerance="10"
     guidetolerance="10"
     inkscape:pageopacity="0"
     inkscape:pageshadow="2"
     inkscape:window-width="960"
     inkscape:window-height="1016"
     id="namedview53"
     showgrid="false"
     inkscape:zoom="0.3337544"
     inkscape:cx="739.24475"
     inkscape:cy="179.78988"
     inkscape:window-x="2560"
     inkscape:window-y="27"
     inkscape:window-maximized="0"
     inkscape:current-layer="Layer_1" />
  <defs
     id="defs4">
    <style
       id="style2">.cls-1{fill:#007120;}</style>
  </defs>
  <title
     id="title6">Artboard 17 copy 8</title>
  <path
     class="cls-1"
     d="M408.88,245.37a125.46,125.46,0,0,0-2.5,174.84l31.38,97.28H557.41l31.39-97.28A125.45,125.45,0,0,0,408.88,245.37Zm-7.79,88.71a96.5,96.5,0,1,1,164.73,68.24l-2.47,2.46-27,83.76H458.84l-27-83.76-2.47-2.46A95.9,95.9,0,0,1,401.09,334.08Z"
     id="path8" />
  <rect
     class="cls-1"
     x="433.31"
     y="533.74"
     width="128.55"
     height="28.95"
     id="rect10" />
  <rect
     class="cls-1"
     x="433.31"
     y="578.94"
     width="128.55"
     height="28.95"
     id="rect12" />
  <rect
     class="cls-1"
     x="467.54"
     y="624.15"
     width="58.73"
     height="28.95"
     id="rect14" />
  <rect
     class="cls-1"
     x="277.69"
     y="271.01"
     width="28.95"
     height="124.92"
     transform="translate(-150.14 303) rotate(-44.84)"
     id="rect16" />
  <rect
     class="cls-1"
     x="291.23"
     y="171.66"
     width="124.92"
     height="28.95"
     transform="translate(166.54 539.29) rotate(-89.84)"
     id="rect18" />
  <rect
     class="cls-1"
     x="438.91"
     y="110.98"
     width="124.92"
     height="28.95"
     transform="translate(57.38 390) rotate(-44.84)"
     id="rect20" />
  <rect
     class="cls-1"
     x="634.24"
     y="124.52"
     width="28.95"
     height="124.92"
     transform="translate(459.88 835.15) rotate(-89.84)"
     id="rect22" />
  <rect
     class="cls-1"
     x="694.92"
     y="272.2"
     width="28.95"
     height="124.92"
     transform="translate(-29.62 597.53) rotate(-44.84)"
     id="rect24" />
  <path
     class="cls-1"
     d="M185.85,797.53c-3.86-1.51-4.63-3.33-3.28-7l22.88-62.7a18.66,18.66,0,0,1,.87-2.09,3.61,3.61,0,0,1,4.15-2.13,25.81,25.81,0,0,1,3.71,1c11.25,4.1,22.6,8.23,33.77,12.4,10.08,3.67,15.75,11,17.61,21.35a12.62,12.62,0,0,1,.15,2.26,37.7,37.7,0,0,1-2.15,11.09,30.62,30.62,0,0,1-5.57,9.54,21,21,0,0,1-14.05,7.52c-4.26.45-8.61.6-12.8-.82-4.6-1.57-9.16-3.23-13.73-4.9a19.37,19.37,0,0,0-2-1c-3.86-.94-5.62-.61-6.7,3.5s-2.91,8.41-4.42,12.82c-1.12,3.08-2.56,4.24-5.21,3.79-1.4-.26-2.47-.8-8.23-2.85C189.13,798.77,187.5,798.18,185.85,797.53Zm50.3-29.08a8.32,8.32,0,0,0,6.82-5.09c1-2.71-.5-6.78-3.18-8.83-1.12-.87-4.81-2.42-8.24-3.67-2.89-1.05-5.73-2-6.76-2-1.95-.14-2.78.32-3.51,2.05-.49,1.35-1.11,2.76-1.61,4.12s-.93,2.84-1.43,4.24c-.66,2.07-.31,3.37,1.55,4.3s9.33,3.61,10.93,4.29A10.69,10.69,0,0,0,236.15,768.45Z"
     id="path26" />
  <path
     class="cls-1"
     d="M305.49,800.19q-11-8.84-11.68-23.29a49.2,49.2,0,0,1,3.08-19.56,73.62,73.62,0,0,1,4-8.79,44.43,44.43,0,0,1,8.53-11.07,28.06,28.06,0,0,1,13.74-7.23c6.1-1.3,12.3-1.45,18.28.52,2.07.65,4.14,1.3,6.17,2,1.31.47,2.59,1,3.87,1.62,9.33,4.16,16.12,10.68,19.3,20.64a34.27,34.27,0,0,1,1.64,12.62A48.3,48.3,0,0,1,369.92,781c-.28.77-.56,1.53-.89,2.29a26.08,26.08,0,0,1-1,3.16,43.83,43.83,0,0,1-7.83,12.66c-5.91,7-13.53,11.14-22.9,11.57A46,46,0,0,1,319.14,808,48.62,48.62,0,0,1,305.49,800.19Zm36.33-14.31a25.12,25.12,0,0,0,5.24-8.63,25.91,25.91,0,0,1,1.6-4.38,22.07,22.07,0,0,0,1.31-9.66c-.65-5.51-2.87-10-8.37-12.16a10.27,10.27,0,0,0-1.59-.68,10.07,10.07,0,0,0-1.62-.48,14.1,14.1,0,0,0-15.9,6.29,61.24,61.24,0,0,0-4.2,8.86,44.45,44.45,0,0,0-2,7.26c-1.43,8.43,1.89,14.76,9.71,17.61A14,14,0,0,0,341.82,785.88Z"
     id="path28" />
  <path
     class="cls-1"
     d="M399.68,792.51c.55-1.54,1.19-3.15,1.73-4.64q10.39-28.54,20.74-57.09c2-5.36,3.09-6.24,7.52-4.63l3.3,1.2c2.76,1,5.24,1.91,7.83,2.95,4.26,1.66,4.89,3,3.38,7.17-7.57,20.79-10.76,28.84-15.12,40.81l-1.91,5.24c-1,2.81-.16,5,2.34,5.67q4.51,1.34,9.05,3l14.55,5.3c3.7,1.35,5.45,3.73,4.43,6.53-.79,1.6-1.68,3.48-2,4.43-.46,1.27-1.17,4.33-1.32,4.74-1.2,3.3-3.95,3.68-8.16,2.15l-42.29-15.4c-.5-.18-1-.32-1.51-.5C399,798.09,398.36,796.12,399.68,792.51Z"
     id="path30" />
  <path
     class="cls-1"
     d="M493.22,800.19c-7.33-5.89-11.2-13.65-11.68-23.29a49.19,49.19,0,0,1,3.07-19.56,73.62,73.62,0,0,1,4-8.79,44.7,44.7,0,0,1,8.54-11.07,28.06,28.06,0,0,1,13.74-7.23c6.1-1.3,12.3-1.45,18.28.52,2.07.65,4.13,1.3,6.17,2,1.31.47,2.58,1,3.86,1.62,9.34,4.16,16.12,10.68,19.3,20.64a34.07,34.07,0,0,1,1.65,12.62A47.94,47.94,0,0,1,557.64,781c-.28.77-.56,1.53-.88,2.29a26.08,26.08,0,0,1-1,3.16,43.65,43.65,0,0,1-7.84,12.66C542,806,534.4,810.22,525,810.65A46.06,46.06,0,0,1,506.86,808,48.71,48.71,0,0,1,493.22,800.19Zm36.32-14.31a25.14,25.14,0,0,0,5.25-8.63,17.79,17.79,0,0,0,.71-2.25,17.6,17.6,0,0,0,.88-2.13,21.93,21.93,0,0,0,1.32-9.66c-.66-5.51-2.88-10-8.37-12.16a10.7,10.7,0,0,0-1.59-.68,10.38,10.38,0,0,0-1.62-.48,14.09,14.09,0,0,0-15.9,6.29A60.2,60.2,0,0,0,506,765a43.47,43.47,0,0,0-2,7.26c-1.43,8.43,1.89,14.76,9.71,17.61A14,14,0,0,0,529.54,785.88Z"
     id="path32" />
  <path
     class="cls-1"
     d="M588.19,797.81a35.59,35.59,0,0,1-7-15.18A70.09,70.09,0,0,1,580,770.42a54.11,54.11,0,0,1,1.25-11.34c2.36-10.86,7-19.32,18.55-24.51,4.18-1.92,11.39-3.26,18.84-3.26a43.66,43.66,0,0,1,11.34,1c3.13.81,5.58,2.93,5.58,5.81v9.08c0,2.79-2.26,5-7.83,4.66-2.5-.14-4.76-.24-6.73-.24-13.84,0-17.54,4.67-17.54,19.75,0,10.34,5.47,17.11,18.55,17.11,1.39,0,3.41-.09,8.41-.48,3.6-.09,5.14,1.3,5.14,4.13v10.1c0,2.4-1.35,3.94-3.41,5-3.18,1.49-7.93,1.78-12.26,1.78C602.85,809.06,595.12,806.37,588.19,797.81Zm17.21-73.33a46.3,46.3,0,0,0-4.85-7.11c-3.32-3.94-3.95-3.32-3.95-5,0-.53,1.16-.62,2.07-.62h9c2.06,0,2.5.09,3.17,1.1,1.06,1.45,2.11,3.32,3,4.86.62,1.06,1.15,1.34,1.82,1.34a2.18,2.18,0,0,0,1.59-.62c.91-1.35,2.07-3.41,2.59-4.33l1-1.53c.43-.63,1.16-.82,2.5-.82h9.47c.72,0,2.06.09,2.06.72s-1.53,2.16-2.68,3.8c-1.93,2.59-3.9,5.57-3.9,5.47-.72.92-1.44,1.78-2.21,2.79-.58.72-1.82,1.15-3.51,1.15H608.91C607.22,725.63,605.79,725.3,605.4,724.48Z"
     id="path34" />
  <path
     class="cls-1"
     d="M659.38,806.18a4.31,4.31,0,0,1,.77-2.31c.82-1.63,2.89-7.21,5.34-13.22s9-25,12.3-35.41c3.07-9.61,1.87-7,5-14.32a26.71,26.71,0,0,0,1.78-5.19c1-3.7,2.36-4.14,5.15-4.42,1-.1,1.68-.1,1.87-.1,7.74,0,14.13-.1,15.62-.1h3.26c5.58,0,6.45,3.17,7.12,5.67,1.87,7.4,4.13,10.91,6.82,18.89,8.6,25.28,6.3,18.26,9.81,28.06C739,797,739,797.48,739.35,798.44a26.76,26.76,0,0,0,2.26,5.14,8.22,8.22,0,0,1,.91,3c0,2-1.73,2.84-3.8,2.84l-13.31-.15a19.06,19.06,0,0,1-3.31-.19,5.37,5.37,0,0,1-4.76-4.13c-.29-1-1-4.42-1.54-6-1.15-3.6-3-4.13-5.81-4.33s-5.53,0-9.09-.09c-4.22-.1-6.82.09-9,.09-3.37,0-5.14,1.69-6.06,4.67-.33,1.25-.62,3-.81,3.89-.77,4.18-3,6-6.73,6.1-5.29.15-10.52-.19-15.72-.19C660.73,809.06,659.38,808.05,659.38,806.18ZM705.85,776c1.4-.39,1.78-1,1.78-1.92a10,10,0,0,0-.43-2.12c-4.13-12.69-3.36-10.52-4.42-15-.29-1.15-1-1.68-1.73-1.68a2.07,2.07,0,0,0-1.59.87c-.62,1.1-2.06,7.83-3.07,10.52-.63,1.78-2.31,5.38-2.31,7.12a2.29,2.29,0,0,0,2.21,2.4,25.5,25.5,0,0,0,4.71,0A22.34,22.34,0,0,0,705.85,776Z"
     id="path36" />
  <path
     class="cls-1"
     d="M771.38,807.71a4.46,4.46,0,0,1-3.22-4.23v-12.3c0-1.82,1-3.17,2.26-3.17,1.78,0,9.32,4,18.07,4,5.48,0,7.88-2.16,7.88-5.57s-.43-5.24-3.75-7c-5.33-2.88-13.4-4.13-18.88-9.27-3.7-3.42-6.39-9.09-6.39-16.25A23.51,23.51,0,0,1,770.66,741a18.48,18.48,0,0,1,6.78-5.91,31.33,31.33,0,0,1,15.28-3.79,47.53,47.53,0,0,1,16.43,2.88c2.17.82,2.5,1.87,2.5,4.56,0,1.64-.09,4-.09,6.88,0,3.55-.15,6.82-2.41,6.82-2.88,0-6.19-3.51-14.31-3.51-5.63,0-7.36,1.68-7.36,4.57,0,3.22,2.69,4.13,7.31,5.67,2.93,1,6.44,2.59,10,4.23a23.56,23.56,0,0,1,8.26,5.81c3.07,3.46,5,8.12,5,14.95,0,12.06-4,17-9.42,21-3.8,2.79-11.25,4.85-19.08,4.85C783.25,810,776.62,809.35,771.38,807.71Z"
     id="path38" />
  <path
     class="cls-1"
     d="M258.54,925.05a31.69,31.69,0,0,1-2.16-2.5l-20-29.74c-.82-1.3-1.44-2.65-2.16-4a4.22,4.22,0,0,0-1.88-2,2.31,2.31,0,0,0-1.1-.24,1.29,1.29,0,0,0-1.06.43,1.66,1.66,0,0,0-.62,1.35,79.63,79.63,0,0,1,.81,12.16c0,4.37-.29,8.79-.29,13.16,0,1.2.1,2.26.1,3.37s.29,2.16.34,3.31a10.67,10.67,0,0,1,.19,1.78c0,3.61-2.16,5.33-4.95,5.33H212.26c-3.6-.09-4.85-2-4.85-6,0-1.87.14-3.84.14-5.76v-54c0-2.6-.14-5.19-.14-7.79.09-2.88,1.25-4.33,4-4.52,1.68-.09,3.31-.09,5-.09,3.32,0,6.73.09,10.14.09,2,0,3.41,1.16,4.57,2.79,3.36,5,6.87,9.8,10.18,14.75,3.13,4.47,6,9,9.09,13.55a39.91,39.91,0,0,1,3.22,5.24,15,15,0,0,0,3.07,3.94,1.42,1.42,0,0,0,1.06.53,1.6,1.6,0,0,0,1-.34,8.24,8.24,0,0,0,.86-1.34,4.14,4.14,0,0,0,.1-1.11,86.84,86.84,0,0,1-.91-13.64c0-4.33.19-8.65.19-12.93,0-1.44,0-2.88-.1-4.32,0-.53-.09-1.11-.09-1.74s.09-1.05.09-1.58c.19-2.55,1.44-3.8,4-3.89,2.07,0,4.23-.1,6.3-.1,2.93,0,5.91.1,8.89.19,2.21.1,3.31,1.35,3.6,3.61.05.91,0,1.87,0,2.78q0,33.17.05,66.32c-.14,4.85-1.49,5.33-7.88,5.33H269c-1.54,0-3.22,0-4.76,0A7.18,7.18,0,0,1,258.54,925.05Z"
     id="path40" />
  <path
     class="cls-1"
     d="M309.75,924.33a4.27,4.27,0,0,1,.77-2.3c.82-1.64,2.88-7.21,5.33-13.22,2.31-5.86,9-25,12.31-35.42,3.07-9.61,1.87-7,5-14.32a26.48,26.48,0,0,0,1.78-5.19c1-3.7,2.36-4.13,5.14-4.42,1.06-.09,1.68-.09,1.88-.09,7.73,0,14.13-.1,15.62-.1h3.26c5.58,0,6.44,3.17,7.12,5.67,1.87,7.4,4.13,10.91,6.82,18.89,8.6,25.27,6.29,18.26,9.8,28.06,4.76,13.22,4.76,13.75,5.09,14.71a26.49,26.49,0,0,0,2.27,5.14,8.16,8.16,0,0,1,.91,3c0,2-1.73,2.83-3.8,2.83l-13.31-.14a19.24,19.24,0,0,1-3.32-.19,5.36,5.36,0,0,1-4.75-4.14c-.29-1-1-4.42-1.54-6-1.15-3.61-3-4.14-5.82-4.33s-5.52,0-9.08-.1c-4.23-.09-6.82.1-9,.1-3.36,0-5.14,1.68-6,4.66-.34,1.25-.63,3-.82,3.9-.76,4.18-3,6-6.72,6.1-5.29.14-10.53-.19-15.72-.19C311.1,927.22,309.75,926.21,309.75,924.33Zm46.47-30.18c1.4-.38,1.78-1,1.78-1.92a9.86,9.86,0,0,0-.43-2.11c-4.14-12.69-3.37-10.53-4.42-15-.29-1.15-1-1.68-1.73-1.68a2.07,2.07,0,0,0-1.59.87c-.63,1.1-2.06,7.83-3.08,10.52-.62,1.78-2.3,5.38-2.3,7.11a2.28,2.28,0,0,0,2.21,2.4,25.5,25.5,0,0,0,4.71,0A21.76,21.76,0,0,0,356.22,894.15Zm-7.83-50.36c-1.49-.09-2.93-1-2.93-2.3a6,6,0,0,1,1.34-3.27c2-2.6,3.75-5,4.57-6.3.19-.24.81-1.44,1.44-1.68a6.76,6.76,0,0,1,2.07-.29c3.7,0,12.49-.19,14.46-.09.91.09,1.64.48,1.64,1.1a2.82,2.82,0,0,1-.82,1.54c-1.11,1.15-7.45,7.35-9.08,9s-2.26,2.5-4.86,2.5C355.4,844,349.73,843.89,348.39,843.79Z"
     id="path42" />
  <path
     class="cls-1"
     d="M426.36,927.5c-4.13-.09-5.47-1.53-5.47-5.47l0-66.7a17.71,17.71,0,0,1,.1-2.26,3.61,3.61,0,0,1,3.17-3.42,26.25,26.25,0,0,1,3.85-.28c12,0,24,0,35.94.09,10.72,0,18.55,4.95,23.84,14a13.75,13.75,0,0,1,.91,2.07,37.63,37.63,0,0,1,1.78,11.15,30.63,30.63,0,0,1-2,10.86,21,21,0,0,1-10.62,11.87c-3.85,1.87-7.88,3.51-12.3,3.61-4.86.09-9.71.09-14.57.09a18.46,18.46,0,0,0-2.25-.19c-3.94.43-5.48,1.34-5.1,5.57s.15,8.89.24,13.55c0,3.27-1,4.86-3.6,5.34-1.39.24-2.6.09-8.7.14C429.87,927.55,428.14,927.55,426.36,927.5ZM463.66,883a8.33,8.33,0,0,0,4.66-7.12c0-2.88-2.79-6.2-6-7.21-1.35-.43-5.33-.62-9-.62-3.08,0-6.06.1-7,.48-1.88.53-2.5,1.25-2.6,3.12,0,1.45-.09,3-.09,4.42s.09,3,.09,4.47c.1,2.17.87,3.27,2.93,3.51s10,.2,11.73.29A10.75,10.75,0,0,0,463.66,883Z"
     id="path44" />
  <path
     class="cls-1"
     d="M505.63,924.33a4.27,4.27,0,0,1,.77-2.3c.82-1.64,2.88-7.21,5.33-13.22,2.31-5.86,9-25,12.3-35.42,3.08-9.61,1.88-7,5.05-14.32a27.15,27.15,0,0,0,1.78-5.19c1-3.7,2.36-4.13,5.14-4.42,1.06-.09,1.68-.09,1.88-.09,7.73,0,14.12-.1,15.61-.1h3.27c5.57,0,6.44,3.17,7.11,5.67,1.88,7.4,4.14,10.91,6.83,18.89,8.6,25.27,6.29,18.26,9.8,28.06,4.76,13.22,4.76,13.75,5.09,14.71a27.47,27.47,0,0,0,2.26,5.14,8,8,0,0,1,.92,3c0,2-1.73,2.83-3.8,2.83l-13.31-.14a19.24,19.24,0,0,1-3.32-.19,5.39,5.39,0,0,1-4.76-4.14c-.28-1-1-4.42-1.53-6-1.15-3.61-3-4.14-5.82-4.33s-5.52,0-9.08-.1c-4.23-.09-6.82.1-9,.1-3.36,0-5.14,1.68-6,4.66-.34,1.25-.63,3-.82,3.9-.77,4.18-3,6-6.72,6.1-5.29.14-10.53-.19-15.72-.19C507,927.22,505.63,926.21,505.63,924.33Zm46.47-30.18c1.39-.38,1.78-1,1.78-1.92a9.86,9.86,0,0,0-.43-2.11c-4.14-12.69-3.37-10.53-4.43-15-.29-1.15-1-1.68-1.72-1.68a2.06,2.06,0,0,0-1.59.87c-.63,1.1-2.07,7.83-3.08,10.52-.62,1.78-2.3,5.38-2.3,7.11a2.28,2.28,0,0,0,2.21,2.4,25.5,25.5,0,0,0,4.71,0A21.8,21.8,0,0,0,552.1,894.15Z"
     id="path46" />
  <path
     class="cls-1"
     d="M620.27,927.5a4,4,0,0,1-3.36-3.36,11.62,11.62,0,0,1-.1-2.21l0-66.89a8.65,8.65,0,0,1,.34-2.79c.53-1.68,1.15-2.31,2.69-2.5a29.34,29.34,0,0,1,4-.19h26.38a70.85,70.85,0,0,1,16.1,2.16,26.73,26.73,0,0,1,15.09,10.14c4.42,5.57,6.78,11.63,7.55,19.61a65.45,65.45,0,0,1,.48,7.83c0,1.54-.1,3.85-.19,5.09a44.19,44.19,0,0,1-4,15.14c-3.27,7.16-7.4,11.3-14.94,14.47A41.53,41.53,0,0,1,654,927.55H622.48A22.07,22.07,0,0,1,620.27,927.5Zm37.92-20.61a17.39,17.39,0,0,0,8.6-12.93,50.75,50.75,0,0,0,.48-6.29,33,33,0,0,0-.62-6.54c-1.11-5.24-3.8-8.84-8.22-10.71A27,27,0,0,0,648,868.68c-2.11,0-5.29.2-6.2.29-2.5.2-2,1-2.21,2.17a9,9,0,0,0-.19,2.25v7.36c0,21.38.09,23,.09,23.74,0,3.5,2.5,4.32,7.74,4.32C652.18,908.81,654.87,909,658.19,906.89Z"
     id="path48" />
  <path
     class="cls-1"
     d="M737.13,926.3A24.77,24.77,0,0,1,721.07,911a45.22,45.22,0,0,1-2.69-15.91c-.09-6.53-.09-13.11-.09-19.65v-19.7a18.56,18.56,0,0,1,.14-2.79c.48-2.35,1.64-3.51,4.09-3.51,2.83,0,5.71.1,8.5.1a57.53,57.53,0,0,0,5.77-.19c2.35-.15,3.79,1.2,4.13,3.6a18.09,18.09,0,0,1,.29,3.94c.1,5.77.1,11.63.1,17.35s0,11.63-.1,17.44c0,2-.29,4-.29,6.06a10.09,10.09,0,0,0,6.73,9.51c.72.24,1.44.44,2.16.63a15.77,15.77,0,0,0,3,.24c6.39,0,10.86-4.38,10.86-11.39v-8.07c0-6.49,0-13-.09-19.42,0-2.35.09-4.76.09-7.11a40.37,40.37,0,0,0-.43-6.39v-.63c0-3,.91-5,3.6-5.38a14.3,14.3,0,0,1,2.79-.29h10.14c5.19,0,6.73,1.25,6.73,5.67,0,4-.15,8-.15,12v29.75a39.1,39.1,0,0,1-1.73,11.58c-2.78,8.79-8.36,15-17.15,17.87a47,47,0,0,1-15.28,2.55A46.18,46.18,0,0,1,737.13,926.3Z"
     id="path50" />
</svg>
