<?xml version="1.0" standalone="no"?>
<!DOCTYPE svg PUBLIC "-//W3C//DTD SVG 20010904//EN"
 "http://www.w3.org/TR/2001/REC-SVG-20010904/DTD/svg10.dtd">
<svg version="1.0" xmlns="http://www.w3.org/2000/svg"
 width="1001.000000pt" height="1001.000000pt" viewBox="0 0 1001.000000 1001.000000"
 preserveAspectRatio="xMidYMid meet">
<metadata>
Created by potrace 1.11, written by Peter Selinger 2001-2013
</metadata>
<g transform="translate(0.000000,1001.000000) scale(0.100000,-0.100000)"
fill="#000000" stroke="none">
<path d="M4897 9464 c-1 -1 -63 -4 -137 -8 -74 -4 -151 -9 -170 -11 -19 -2
-75 -9 -125 -15 -117 -14 -146 -18 -245 -35 -706 -120 -1436 -451 -2005 -909
-55 -44 -105 -85 -111 -91 -7 -5 -45 -39 -85 -75 -148 -132 -344 -339 -498
-525 -119 -145 -292 -401 -415 -615 -123 -214 -318 -672 -373 -875 -44 -164
-83 -314 -87 -334 -2 -14 -13 -71 -25 -126 -11 -55 -23 -123 -27 -150 -3 -28
-8 -57 -9 -65 -2 -9 -6 -43 -10 -75 -4 -33 -8 -71 -10 -85 -26 -177 -26 -748
0 -925 2 -16 6 -54 10 -84 6 -59 22 -169 30 -216 120 -646 326 -1165 673
-1695 52 -80 104 -157 116 -171 11 -14 32 -41 46 -59 181 -246 458 -537 710
-746 477 -395 1020 -683 1610 -854 74 -21 146 -41 160 -43 14 -3 52 -12 85
-20 90 -24 292 -60 403 -73 26 -3 58 -7 72 -9 29 -4 109 -12 235 -21 164 -13
549 -7 710 10 17 2 59 7 95 10 36 4 90 11 120 16 30 5 73 12 95 15 83 13 102
17 190 36 149 33 214 49 340 86 110 32 342 111 390 133 11 5 86 38 167 74 172
77 301 143 453 234 177 106 374 241 471 321 17 14 40 33 50 41 110 86 200 166
354 320 494 492 860 1082 1084 1751 44 131 121 415 132 488 3 20 9 52 14 71 5
19 14 71 20 115 7 44 14 88 16 99 2 10 6 44 10 75 3 31 8 70 10 86 26 209 26
694 0 930 -3 22 -8 65 -11 95 -5 51 -20 147 -29 195 -6 33 -18 99 -22 125 -37
203 -129 519 -221 750 -301 759 -751 1362 -1416 1896 -49 39 -173 128 -267
191 -426 284 -960 517 -1425 623 -27 7 -59 14 -70 16 -157 36 -372 70 -565 89
-116 11 -504 25 -513 19z m484 -1907 c35 -35 75 -76 88 -90 l24 -27 -393 -390
c-217 -214 -398 -390 -403 -390 -5 0 -47 39 -94 87 l-84 87 393 393 c216 216
396 393 399 393 3 0 35 -29 70 -63z m-1591 -406 c14 -1 15 -65 13 -548 -1
-302 -2 -554 -2 -560 -1 -10 -34 -13 -129 -13 l-128 0 1 553 c0 303 3 557 7
562 5 8 126 11 238 6z m3092 -440 c14 -1 16 -17 15 -129 l0 -129 -561 1 -561
2 -2 119 c-2 66 -1 125 1 130 2 7 192 9 547 8 299 -1 551 -2 561 -2z m-1674
-350 c100 -22 254 -79 314 -117 21 -13 42 -24 47 -24 5 0 11 -3 13 -7 2 -5 23
-21 48 -38 80 -53 226 -207 290 -306 222 -344 242 -761 53 -1134 -30 -60 -94
-159 -113 -175 -16 -13 -80 -104 -80 -113 0 -6 -45 -150 -101 -321 -55 -171
-116 -358 -135 -416 l-34 -105 -537 0 -538 0 -82 250 c-45 138 -108 332 -140
433 -55 170 -63 187 -117 256 -176 225 -249 433 -250 711 -1 168 23 292 84
438 27 66 103 203 119 217 3 3 19 23 36 45 44 61 156 167 229 220 67 48 236
140 236 129 0 -4 6 -2 13 4 25 21 176 59 267 69 30 3 57 7 59 9 11 10 240 -8
319 -25z m-1608 -1404 c0 -10 -164 -177 -175 -177 -6 0 -186 178 -402 395
l-391 396 91 89 92 90 392 -393 c216 -215 392 -395 393 -400z m3377 380 l393
-392 -88 -87 c-47 -49 -90 -88 -95 -88 -4 0 -134 127 -288 283 -154 155 -330
333 -392 394 l-112 113 90 90 c49 49 91 87 94 85 4 -3 183 -182 398 -398z
m-1432 -2012 l0 -130 -575 0 -575 0 -1 125 c-1 69 0 127 2 130 1 3 260 5 576
5 l573 0 0 -130z m5 -407 c0 -115 -2 -128 -17 -129 -23 -1 -1079 -1 -1114 0
l-26 1 -1 128 -2 129 580 0 580 0 0 -129z m-320 -408 l0 -130 -262 2 -263 3
-1 128 -1 127 264 0 263 0 0 -130z"/>
<path d="M4816 6114 c-362 -70 -638 -348 -704 -709 -9 -53 -9 -237 1 -300 15
-99 75 -249 130 -329 12 -17 47 -60 77 -96 31 -36 63 -85 72 -110 15 -40 160
-487 163 -500 0 -3 15 -51 33 -107 l32 -102 352 2 351 2 24 75 c14 41 67 206
119 366 52 159 94 294 94 298 0 4 21 29 46 56 319 337 315 871 -8 1202 -165
169 -367 257 -603 263 -62 1 -140 -4 -179 -11z"/>
</g>
</svg>
