<?xml version="1.0" standalone="no"?>
<!DOCTYPE svg PUBLIC "-//W3C//DTD SVG 20010904//EN"
 "http://www.w3.org/TR/2001/REC-SVG-20010904/DTD/svg10.dtd">
<svg version="1.0" xmlns="http://www.w3.org/2000/svg"
 width="2362.000000pt" height="2362.000000pt" viewBox="0 0 2362.000000 2362.000000"
 preserveAspectRatio="xMidYMid meet">
<metadata>
Created by potrace 1.11, written by Peter Selinger 2001-2013
</metadata>
<g transform="translate(0.000000,2362.000000) scale(0.100000,-0.100000)"
fill="#000000" stroke="none">
<path d="M11557 22783 c-1 0 -89 -4 -195 -8 -106 -3 -201 -8 -210 -10 -9 -1
-75 -6 -147 -10 -71 -4 -139 -9 -149 -11 -11 -2 -49 -6 -85 -9 -79 -6 -165
-15 -206 -20 -16 -2 -52 -7 -80 -10 -60 -7 -328 -44 -370 -51 -16 -2 -46 -7
-65 -10 -19 -3 -82 -14 -140 -24 -58 -11 -118 -22 -135 -25 -31 -5 -210 -41
-280 -55 -33 -7 -392 -92 -445 -105 -205 -51 -802 -236 -925 -286 -11 -4 -92
-35 -180 -68 -88 -32 -216 -83 -285 -111 -69 -29 -145 -60 -171 -70 -42 -17
-97 -42 -249 -112 -250 -115 -715 -355 -842 -435 -21 -12 -40 -23 -43 -23 -3
0 -53 -29 -111 -65 -59 -36 -108 -65 -110 -65 -19 0 -731 -475 -764 -510 -3
-3 -27 -21 -55 -39 -27 -19 -52 -38 -55 -41 -3 -3 -43 -34 -90 -70 -100 -75
-370 -290 -390 -310 -3 -3 -34 -30 -70 -60 -62 -51 -208 -181 -295 -262 -22
-20 -58 -53 -80 -73 -154 -142 -488 -481 -635 -645 -41 -46 -80 -88 -85 -94
-6 -6 -37 -42 -70 -81 -33 -38 -62 -72 -65 -75 -3 -3 -37 -43 -76 -90 -933
-1119 -1649 -2439 -2059 -3795 -50 -165 -86 -287 -90 -305 -2 -8 -17 -67 -34
-130 -28 -105 -103 -420 -115 -480 -3 -14 -19 -94 -36 -179 -16 -84 -32 -166
-35 -182 -11 -65 -15 -89 -34 -209 -11 -69 -23 -145 -26 -170 -3 -25 -8 -56
-10 -70 -2 -14 -7 -50 -10 -80 -4 -30 -9 -62 -10 -70 -1 -8 -6 -46 -10 -85 -4
-38 -8 -83 -11 -100 -2 -16 -6 -66 -9 -110 -4 -44 -8 -91 -10 -103 -2 -13 -7
-67 -10 -120 -4 -54 -8 -119 -10 -147 -24 -324 -24 -1092 0 -1350 2 -27 7 -90
10 -140 9 -132 13 -174 19 -241 12 -112 17 -159 21 -194 2 -19 7 -60 10 -90 4
-30 8 -66 10 -80 3 -14 7 -47 10 -75 3 -27 10 -75 15 -105 5 -30 11 -72 14
-92 20 -136 23 -151 61 -353 154 -810 404 -1619 728 -2350 24 -55 55 -125 68
-155 66 -152 323 -651 434 -845 168 -292 158 -275 236 -398 38 -60 69 -111 69
-113 0 -3 5 -10 10 -17 6 -7 59 -84 118 -172 150 -223 286 -413 389 -545 158
-203 444 -551 497 -606 6 -6 40 -43 76 -83 481 -539 1066 -1065 1715 -1542
261 -191 787 -529 1055 -676 480 -264 855 -443 1304 -622 396 -159 949 -341
1261 -417 6 -1 66 -16 135 -34 69 -17 132 -33 140 -35 8 -2 38 -9 65 -15 72
-17 62 -15 280 -59 197 -40 568 -103 675 -115 30 -4 66 -8 80 -11 36 -6 186
-24 250 -30 87 -8 173 -16 200 -20 14 -2 72 -7 130 -10 58 -4 125 -9 150 -10
464 -32 1181 -23 1660 21 193 17 264 25 290 29 14 2 50 7 80 10 30 4 66 8 80
10 14 2 49 7 79 10 30 4 63 8 74 11 11 2 55 8 97 14 42 6 87 13 101 15 13 3
76 14 139 25 152 26 159 28 271 51 125 25 122 25 209 44 41 9 83 18 93 20 45
10 352 89 452 116 569 158 1183 385 1705 631 115 55 393 193 460 230 36 19
101 55 145 78 181 98 449 256 640 378 103 66 179 116 190 124 6 5 80 56 165
114 134 93 506 366 520 383 3 4 25 22 50 41 25 19 52 40 60 47 25 19 155 127
160 133 3 3 32 27 65 55 33 27 65 54 71 60 6 5 45 39 85 75 278 245 633 596
874 865 39 43 75 83 80 89 6 6 66 76 133 156 68 80 131 154 141 165 9 11 73
92 142 180 297 381 541 737 791 1155 98 164 125 210 228 400 53 97 309 610
305 610 -2 0 12 32 31 70 19 39 34 73 34 75 0 4 13 33 66 150 111 246 327 848
427 1195 108 371 224 857 263 1104 3 21 8 48 10 60 7 35 43 247 49 296 3 25 8
56 10 70 4 25 23 164 29 217 2 16 7 57 11 93 3 36 8 76 10 90 2 14 7 61 11
105 4 44 8 94 10 110 2 17 6 75 9 130 4 55 8 120 10 145 24 284 24 999 0 1350
-2 30 -7 96 -10 146 -3 50 -7 100 -9 110 -2 10 -7 60 -11 109 -3 50 -8 101
-10 115 -1 14 -6 54 -10 90 -3 36 -8 76 -10 90 -2 14 -7 50 -11 80 -4 30 -8
64 -9 75 -2 11 -6 43 -10 70 -3 28 -8 57 -10 65 -2 8 -7 38 -10 65 -4 28 -8
57 -10 65 -2 8 -7 33 -10 55 -3 23 -7 52 -10 65 -3 14 -10 52 -15 85 -6 33
-27 137 -46 230 -19 94 -36 179 -38 190 -2 11 -9 40 -16 65 -7 25 -14 56 -16
70 -7 36 -113 443 -134 515 -10 33 -33 107 -50 165 -81 268 -259 769 -321 905
-10 22 -28 65 -39 95 -101 261 -409 890 -579 1185 -51 88 -103 178 -116 200
-31 54 -136 223 -213 342 -34 54 -68 107 -75 118 -6 11 -14 22 -17 25 -3 3
-43 61 -89 130 -47 69 -87 127 -91 130 -3 3 -28 37 -55 75 -49 71 -225 306
-235 315 -3 3 -18 23 -35 45 -16 22 -32 42 -35 45 -3 3 -35 41 -70 85 -35 44
-78 96 -94 115 -17 20 -51 60 -76 90 -56 67 -119 139 -225 255 -46 50 -95 104
-110 120 -97 107 -402 409 -601 595 -410 384 -1019 851 -1519 1165 -77 48
-156 98 -175 111 -40 25 -227 136 -250 147 -8 4 -24 13 -35 20 -26 15 -116 67
-180 102 -179 100 -618 314 -865 423 -649 287 -1524 563 -2180 688 -60 12
-288 54 -315 59 -16 2 -55 9 -85 15 -30 5 -71 12 -90 14 -19 3 -48 7 -65 10
-63 10 -111 17 -150 21 -22 3 -56 7 -75 10 -156 21 -417 48 -605 60 -49 3
-110 8 -135 10 -134 12 -914 27 -923 18z m833 -906 c25 -3 94 -8 153 -12 59
-3 116 -8 125 -10 9 -1 58 -6 107 -10 142 -12 186 -16 285 -30 19 -3 53 -7 75
-10 22 -2 60 -7 85 -10 25 -3 70 -10 100 -15 30 -5 84 -14 120 -20 104 -16
174 -28 210 -35 14 -3 36 -7 50 -10 51 -10 235 -47 250 -51 21 -5 150 -33 175
-38 90 -18 479 -124 665 -182 752 -235 1435 -537 2130 -942 80 -47 163 -97
185 -111 22 -14 48 -30 58 -36 40 -23 270 -175 377 -249 112 -78 460 -334 470
-346 3 -3 48 -39 100 -80 52 -41 106 -84 120 -96 14 -12 61 -52 105 -89 252
-213 657 -598 830 -790 15 -16 50 -55 78 -86 100 -107 134 -145 243 -274 272
-321 571 -718 744 -990 24 -38 47 -72 51 -75 3 -3 32 -49 65 -103 32 -53 83
-136 112 -183 28 -48 52 -89 52 -91 0 -3 8 -17 19 -31 20 -29 24 -35 151 -267
75 -138 241 -469 304 -607 102 -227 196 -457 306 -748 50 -133 205 -613 224
-695 2 -5 8 -30 15 -55 39 -145 81 -308 85 -330 3 -14 16 -72 30 -130 24 -106
76 -362 96 -477 5 -35 12 -75 15 -90 11 -62 25 -151 30 -198 3 -27 8 -62 11
-77 6 -30 11 -69 19 -143 4 -27 8 -61 10 -75 2 -14 7 -56 10 -95 4 -38 8 -83
10 -100 1 -16 6 -68 10 -115 4 -47 8 -101 10 -120 27 -300 27 -1287 0 -1475
-2 -16 -7 -72 -10 -123 -4 -51 -8 -101 -10 -111 -2 -10 -6 -53 -10 -97 -3 -43
-8 -95 -11 -114 -10 -77 -14 -107 -20 -155 -3 -27 -7 -57 -9 -65 -3 -8 -7 -42
-10 -74 -4 -33 -8 -62 -10 -65 -2 -3 -6 -31 -10 -61 -3 -30 -8 -62 -10 -70 -2
-8 -7 -31 -10 -50 -3 -19 -13 -73 -21 -120 -9 -47 -18 -96 -20 -110 -3 -14 -7
-32 -9 -40 -2 -8 -7 -31 -10 -50 -3 -19 -17 -84 -31 -145 -14 -60 -28 -120
-30 -132 -9 -46 -76 -310 -89 -350 -8 -23 -16 -52 -19 -65 -31 -159 -246 -780
-388 -1123 -48 -114 -59 -141 -109 -252 -163 -364 -361 -744 -554 -1063 -31
-52 -66 -110 -76 -127 -10 -18 -41 -67 -69 -109 -27 -41 -50 -77 -50 -79 0 -9
-256 -376 -355 -510 -101 -136 -365 -471 -411 -520 -11 -11 -32 -36 -48 -55
-88 -107 -393 -436 -512 -554 -170 -166 -327 -315 -448 -421 -38 -33 -74 -65
-80 -70 -23 -21 -213 -181 -256 -215 -24 -19 -62 -50 -84 -69 -128 -106 -482
-362 -706 -511 -457 -304 -1080 -644 -1513 -826 -34 -15 -80 -34 -102 -45 -22
-10 -69 -29 -105 -44 -36 -14 -74 -30 -85 -35 -139 -61 -832 -301 -909 -314
-6 -1 -36 -9 -66 -19 -114 -34 -465 -124 -550 -141 -14 -3 -100 -21 -192 -40
-157 -34 -518 -96 -637 -111 -30 -4 -62 -8 -72 -10 -10 -2 -44 -6 -76 -10 -33
-3 -70 -7 -84 -10 -13 -2 -55 -7 -94 -10 -38 -4 -83 -9 -100 -10 -29 -3 -160
-14 -240 -20 -360 -28 -1199 -27 -1475 0 -19 2 -73 6 -120 10 -47 3 -98 8
-115 10 -16 2 -56 6 -87 9 -97 10 -172 18 -192 22 -10 2 -44 6 -75 9 -31 4
-63 8 -71 10 -8 3 -40 7 -70 10 -30 3 -62 8 -70 10 -8 3 -32 7 -53 9 -121 16
-497 90 -737 145 -981 228 -2053 668 -2883 1182 -43 27 -80 49 -83 49 -2 0
-50 30 -106 68 -57 37 -107 69 -113 71 -5 2 -45 29 -90 60 -44 30 -111 77
-150 103 -93 64 -86 58 -276 201 -149 110 -255 192 -269 207 -3 3 -25 21 -50
40 -25 19 -51 40 -58 47 -7 7 -34 29 -60 50 -26 21 -49 40 -52 43 -3 3 -39 34
-80 70 -305 262 -734 687 -950 940 -11 14 -33 39 -48 55 -15 17 -52 59 -82 95
-30 36 -57 67 -60 70 -39 34 -415 526 -532 695 -77 111 -229 341 -262 395 -15
25 -45 74 -68 110 -296 470 -620 1135 -835 1710 -112 298 -249 718 -288 880
-2 8 -22 85 -44 170 -35 138 -53 216 -106 460 -8 36 -16 79 -19 95 -3 17 -8
41 -11 55 -3 14 -8 43 -11 65 -3 22 -7 46 -10 54 -3 8 -7 30 -10 50 -3 20 -12
74 -19 121 -8 47 -17 103 -20 125 -2 22 -7 58 -11 80 -3 22 -7 51 -9 65 -2 14
-7 50 -10 80 -3 30 -8 66 -10 80 -3 14 -7 59 -10 100 -3 41 -7 82 -10 90 -3
14 -13 131 -20 240 -2 25 -7 101 -11 170 -17 247 -10 1101 11 1310 2 19 6 74
10 122 3 49 8 96 10 106 2 10 6 58 10 108 4 49 9 91 10 94 2 3 6 34 9 70 6 63
15 125 22 165 2 11 6 40 9 65 3 25 8 57 10 73 3 15 7 39 9 55 22 132 39 229
51 292 9 41 17 84 19 95 21 108 78 362 111 495 44 174 134 485 193 665 42 127
166 476 182 510 5 11 30 72 55 135 25 63 57 140 72 170 14 30 33 76 43 101 68
172 283 599 460 914 40 71 194 330 202 340 5 6 41 62 81 125 122 196 459 675
502 715 6 6 24 28 40 50 29 40 253 316 264 325 4 3 35 39 70 80 132 155 242
272 490 520 256 255 281 279 441 420 47 41 87 77 90 80 17 17 145 123 265 219
77 62 147 118 155 124 36 29 290 218 345 257 175 123 616 410 630 410 2 0 23
12 47 28 240 153 733 406 1123 577 473 207 952 373 1488 515 64 17 125 33 135
35 9 2 47 10 83 19 37 8 78 17 90 20 13 3 87 19 164 35 78 17 154 32 170 35
17 3 40 8 52 10 11 3 43 8 70 12 26 5 50 9 53 9 12 3 98 17 125 21 17 2 41 6
55 9 26 4 35 6 175 25 144 19 196 25 295 35 36 4 80 8 99 10 18 3 72 7 120 10
47 4 102 8 121 10 19 3 100 7 180 11 80 3 147 8 149 10 6 5 925 -3 981 -9z"/>
<path d="M11577 21234 c-1 -1 -83 -5 -182 -8 -99 -4 -196 -9 -215 -11 -19 -1
-78 -6 -130 -10 -52 -3 -108 -8 -125 -10 -16 -2 -61 -7 -100 -10 -38 -3 -81
-8 -95 -10 -14 -2 -47 -7 -75 -10 -61 -7 -201 -25 -235 -30 -14 -2 -45 -7 -70
-10 -25 -3 -52 -8 -60 -10 -8 -2 -33 -6 -55 -10 -33 -4 -178 -30 -294 -52
-134 -24 -457 -100 -656 -153 -480 -127 -1067 -339 -1503 -541 -46 -22 -86
-39 -88 -39 -7 0 -412 -204 -499 -251 -220 -120 -245 -135 -245 -150 0 -8 4
-19 9 -25 7 -7 208 -352 332 -571 34 -59 55 -95 168 -291 61 -106 120 -207
130 -225 26 -45 75 -130 166 -287 43 -74 86 -148 95 -165 101 -179 257 -446
271 -467 11 -15 19 -29 19 -32 0 -5 184 -324 245 -426 18 -30 43 -73 55 -95
12 -22 65 -114 118 -205 52 -91 105 -183 117 -205 13 -22 46 -80 75 -130 29
-49 86 -148 128 -220 41 -71 97 -167 123 -213 27 -45 49 -85 49 -88 0 -2 12
-23 27 -47 15 -23 28 -43 29 -45 1 -2 24 10 52 27 61 36 361 186 450 224 356
155 718 272 1072 346 151 31 256 51 302 57 24 3 68 9 98 14 30 5 87 12 125 15
39 4 81 8 95 10 153 26 901 26 1038 0 9 -1 49 -6 87 -9 39 -4 80 -8 90 -10 11
-2 43 -7 70 -10 28 -4 66 -10 85 -12 19 -3 46 -7 60 -10 14 -2 41 -7 60 -10
218 -35 637 -148 870 -234 47 -17 108 -40 135 -50 47 -17 81 -31 165 -67 19
-8 44 -19 55 -23 65 -28 371 -179 436 -216 43 -24 84 -41 91 -38 7 3 20 19 28
37 9 18 76 137 150 265 74 128 143 247 154 265 34 60 508 881 604 1047 53 91
102 176 110 190 7 14 25 46 40 71 15 25 65 112 112 193 47 81 93 161 104 179
80 138 243 420 264 457 14 25 99 173 190 330 90 157 207 359 260 450 52 91
107 186 122 211 l28 46 -116 66 c-183 103 -186 104 -396 209 -553 277 -1123
498 -1722 668 -88 25 -361 96 -404 105 -8 2 -58 13 -110 25 -170 38 -388 80
-550 106 -52 8 -108 17 -125 20 -42 8 -112 18 -205 29 -19 2 -51 7 -70 9 -19
3 -57 8 -85 11 -27 2 -77 7 -110 11 -65 7 -77 8 -210 19 -265 21 -424 27 -738
29 -158 1 -289 1 -290 0z"/>
<path d="M11618 16165 c-2 -2 -50 -5 -108 -9 -93 -5 -182 -14 -315 -31 -80
-11 -288 -49 -323 -59 -9 -3 -28 -7 -42 -10 -51 -9 -129 -29 -272 -72 -397
-118 -787 -302 -1146 -541 -86 -57 -318 -230 -350 -260 -10 -10 -45 -40 -78
-67 -32 -27 -135 -127 -229 -221 -169 -169 -310 -334 -439 -514 -72 -99 -196
-288 -196 -297 0 -3 -8 -18 -18 -32 -36 -52 -162 -294 -219 -421 -127 -286
-251 -685 -297 -958 -24 -142 -36 -218 -42 -273 -4 -36 -8 -74 -10 -85 -10
-95 -18 -284 -18 -450 1 -216 7 -314 34 -540 12 -91 11 -87 56 -330 12 -65 88
-346 118 -435 145 -434 351 -840 591 -1166 16 -23 39 -54 50 -70 154 -213 458
-535 675 -714 30 -25 57 -47 60 -50 6 -6 62 -50 145 -112 104 -78 294 -204
390 -258 76 -43 72 -34 69 -134 -1 -50 -5 -287 -9 -526 -4 -239 -8 -437 -11
-439 -2 -2 -14 -5 -27 -6 -61 -7 -78 -30 -96 -132 -20 -113 -23 -136 -24 -256
-1 -215 27 -447 79 -637 30 -107 29 -104 15 -186 -6 -32 -13 -77 -16 -99 -4
-22 -8 -47 -10 -55 -29 -107 -23 -468 10 -590 2 -8 7 -28 10 -45 2 -16 7 -41
11 -55 10 -44 11 -64 3 -94 -32 -112 -43 -370 -25 -571 17 -182 58 -324 93
-326 10 0 194 0 410 0 l391 -1 7 -26 c56 -228 247 -429 532 -562 59 -27 191
-78 223 -85 8 -2 49 -12 90 -22 l76 -18 -1 -148 c0 -88 4 -152 10 -156 13 -11
761 -8 771 2 5 4 9 76 9 159 l0 151 25 8 c14 4 77 23 140 44 349 111 599 320
686 572 l28 80 387 1 c468 1 442 -6 474 125 59 243 59 533 -1 749 -15 51 -15
61 -1 105 37 113 52 249 52 458 -1 193 -12 293 -46 409 -11 38 -18 78 -15 90
3 12 6 24 6 28 1 4 6 22 11 40 5 18 12 53 15 78 3 25 8 48 10 51 16 27 25 443
12 574 -8 82 -31 202 -50 263 -11 35 -21 46 -55 63 l-43 21 6 301 c2 166 6
403 8 527 l4 225 140 86 c404 249 727 524 1026 874 167 195 360 466 456 640
18 33 43 78 56 100 105 190 227 473 299 690 66 200 139 494 160 645 2 14 6 39
9 55 13 79 35 277 42 390 5 86 5 458 0 535 -11 150 -22 252 -47 405 -11 75
-16 101 -36 195 -8 41 -17 84 -19 95 -12 64 -91 335 -133 453 -169 480 -429
936 -761 1332 -370 442 -853 822 -1365 1076 -170 85 -218 105 -400 176 -163
63 -471 153 -645 187 -30 6 -66 14 -80 16 -58 12 -292 45 -355 50 -16 2 -68 6
-115 10 -79 7 -487 15 -492 10z"/>
<path d="M2406 12162 c-17 -4 -18 -19 -12 -240 6 -225 9 -277 21 -467 5 -90
15 -198 30 -347 8 -73 23 -195 30 -243 2 -16 7 -52 10 -80 7 -51 62 -389 71
-435 3 -14 7 -38 10 -55 3 -16 19 -93 36 -170 32 -153 31 -148 48 -220 6 -27
14 -59 16 -70 8 -41 93 -355 127 -470 125 -422 312 -922 473 -1263 24 -52 44
-96 44 -99 0 -15 253 -506 340 -658 56 -99 108 -190 114 -202 6 -13 14 -23 19
-23 4 0 7 -5 7 -10 0 -15 133 -226 278 -440 271 -402 601 -819 917 -1160 103
-111 496 -501 584 -580 46 -41 89 -80 95 -85 18 -17 169 -147 220 -190 27 -22
53 -44 60 -50 104 -90 410 -323 586 -446 135 -95 387 -264 425 -285 11 -6 80
-48 154 -93 73 -44 136 -81 140 -81 8 0 26 29 277 463 246 424 224 385 285
492 141 245 398 687 430 740 11 17 22 37 26 45 4 8 31 55 60 104 29 49 53 90
53 92 0 3 101 175 120 204 6 8 13 22 17 30 3 8 50 89 103 180 53 91 140 239
192 330 53 91 135 233 183 315 48 83 96 166 107 185 11 19 53 91 93 160 247
423 236 403 215 414 -230 131 -616 409 -825 595 -306 274 -541 528 -769 831
-47 63 -89 120 -94 125 -25 32 -189 288 -247 385 -306 517 -534 1118 -654
1728 -17 85 -33 177 -36 205 -3 29 -8 59 -10 67 -3 8 -7 40 -10 70 -4 30 -8
68 -10 83 -3 28 -13 125 -20 207 -2 25 -7 124 -11 220 -3 96 -8 177 -10 179
-2 2 -880 5 -1951 8 -1071 2 -2036 5 -2144 6 -108 1 -204 0 -213 -1z"/>
<path d="M20836 12163 c-1 -1 -876 -4 -1944 -6 -1069 -3 -1945 -6 -1947 -8 -2
-2 -6 -80 -10 -174 -4 -93 -8 -183 -9 -200 -2 -16 -6 -66 -10 -110 -8 -98 -10
-115 -42 -345 -3 -25 -19 -110 -35 -190 -16 -80 -32 -158 -35 -175 -5 -26 -42
-168 -89 -341 -30 -109 -127 -388 -170 -489 -7 -16 -32 -75 -55 -130 -333
-783 -900 -1534 -1560 -2065 -24 -19 -48 -40 -54 -45 -57 -54 -409 -299 -586
-407 -58 -36 -60 -38 -47 -60 8 -13 137 -234 287 -493 401 -691 804 -1385 876
-1508 35 -60 64 -110 64 -113 0 -2 16 -28 35 -58 19 -30 35 -58 35 -61 0 -3 8
-18 19 -33 15 -22 188 -320 268 -462 11 -19 105 -181 210 -360 104 -179 229
-394 277 -478 48 -83 91 -152 96 -152 9 0 239 138 345 207 39 25 95 62 125 82
283 183 789 564 966 726 6 6 37 33 69 60 64 55 64 55 191 170 170 154 576 566
694 705 11 14 33 39 48 55 15 17 52 59 82 95 30 36 57 67 60 70 3 3 41 50 85
105 44 55 82 102 85 105 3 3 49 61 101 130 270 354 529 745 736 1115 46 83 91
161 99 175 45 77 272 542 343 705 175 399 395 1012 466 1295 2 8 22 86 45 174
23 87 43 166 45 175 2 9 13 57 25 106 27 113 22 88 64 300 37 192 39 202 56
310 6 39 13 81 15 95 11 68 24 161 30 210 3 30 8 66 10 80 2 14 7 54 10 90 3
36 8 72 10 80 2 8 6 51 10 95 3 44 8 103 10 130 16 163 28 438 29 653 l1 164
-213 1 c-118 1 -215 1 -216 0z"/>
</g>
</svg>
